<?xml version="1.0" encoding="utf-8"?>
<svg viewBox="0 0 253 30" xmlns="http://www.w3.org/2000/svg">
  <g id="Artboard" stroke="none" stroke-width="1" fill="none" fill-rule="evenodd">
    <rect id="Rectangle" fill="#FF5E5B" width="253" height="30" rx="8" y="0" x="0"/>
    <g id="Group" transform="translate(24.000000, 7.000000)" fill-rule="nonzero">
      <path d="M17.417931,-1.74615877e-12 L19.0255476,-1.74615877e-12 C22.126324,-1.74672838e-12 24.64,2.51367595 24.64,5.61445238 L24.64,5.94446654 C24.64,9.04524297 22.126324,11.5589189 19.0255476,11.5589189 L17.417931,11.5589189 L17.417931,13.2487143 C17.417931,14.6798419 16.2577729,15.84 14.8266453,15.84 L2.59128571,15.84 C1.16015813,15.84 -2.90320252e-13,14.6798419 -2.91766611e-13,13.2487143 L-2.91544566e-13,1.29564286 C-2.91632198e-13,0.580079066 0.580079066,-1.74624937e-12 1.29564286,-1.74638082e-12 L17.417931,-1.74615877e-12 Z M17.417931,2.99675676 L17.417931,8.56216216 L18.8835042,8.56216216 C20.4203485,8.56216216 21.6662069,7.31630373 21.6662069,5.77945946 C21.6662069,4.24261519 20.4203485,2.99675676 18.8835042,2.99675676 L17.417931,2.99675676 Z" id="Rectangle-2" fill="#FFFFFF"/>
      <path d="M8.36,5.27684576 C8.76029424,4.10561525 9.70894135,3.52 11.2059413,3.52 C13.4514413,3.52 14.2839059,6.3136503 13.106875,8.14 C12.3221877,9.35756646 10.7398961,10.8975665 8.36,12.76 C5.98010394,10.8975665 4.39781228,9.35756646 3.61312502,8.14 C2.43609412,6.3136503 3.26855871,3.52 5.51405867,3.52 C7.01105865,3.52 7.95970576,4.10561525 8.36,5.27684576 Z" id="Path-2" fill="#FF5E5B"/>
    </g>
    <path id="SupportmeonKo-f" fill="#FFFFFF" fill-rule="nonzero" d="M 66.2 19.14 C 65.528 19.14 64.931 19.056 64.408 18.888 C 63.885 18.72 63.395 18.435 62.938 18.034 C 62.686 17.81 62.56 17.563 62.56 17.292 C 62.56 17.077 62.639 16.888 62.798 16.725 C 62.957 16.562 63.148 16.48 63.372 16.48 C 63.549 16.48 63.708 16.536 63.848 16.648 C 64.221 16.956 64.585 17.18 64.94 17.32 C 65.295 17.46 65.715 17.53 66.2 17.53 C 66.723 17.53 67.173 17.413 67.551 17.18 C 67.929 16.947 68.118 16.657 68.118 16.312 C 68.118 15.892 67.931 15.563 67.558 15.325 C 67.185 15.087 66.592 14.907 65.78 14.786 C 63.736 14.487 62.714 13.535 62.714 11.93 C 62.714 11.342 62.868 10.831 63.176 10.397 C 63.484 9.963 63.904 9.632 64.436 9.403 C 64.968 9.174 65.561 9.06 66.214 9.06 C 66.802 9.06 67.355 9.149 67.873 9.326 C 68.391 9.503 68.823 9.737 69.168 10.026 C 69.439 10.241 69.574 10.488 69.574 10.768 C 69.574 10.983 69.495 11.172 69.336 11.335 C 69.177 11.498 68.991 11.58 68.776 11.58 C 68.636 11.58 68.51 11.538 68.398 11.454 C 68.155 11.258 67.817 11.078 67.383 10.915 C 66.949 10.752 66.559 10.67 66.214 10.67 C 65.626 10.67 65.171 10.78 64.849 10.999 C 64.527 11.218 64.366 11.505 64.366 11.86 C 64.366 12.261 64.532 12.565 64.863 12.77 C 65.194 12.975 65.715 13.143 66.424 13.274 C 67.227 13.414 67.868 13.594 68.349 13.813 C 68.83 14.032 69.191 14.331 69.434 14.709 C 69.677 15.087 69.798 15.589 69.798 16.214 C 69.798 16.802 69.632 17.318 69.301 17.761 C 68.97 18.204 68.529 18.545 67.978 18.783 C 67.427 19.021 66.835 19.14 66.2 19.14 Z M 76.826 11.51 C 77.069 11.51 77.269 11.592 77.428 11.755 C 77.587 11.918 77.666 12.121 77.666 12.364 L 77.666 15.92 C 77.666 16.928 77.388 17.717 76.833 18.286 C 76.278 18.855 75.487 19.14 74.46 19.14 C 73.433 19.14 72.645 18.855 72.094 18.286 C 71.543 17.717 71.268 16.928 71.268 15.92 L 71.268 12.364 C 71.268 12.121 71.347 11.918 71.506 11.755 C 71.665 11.592 71.865 11.51 72.108 11.51 C 72.351 11.51 72.551 11.592 72.71 11.755 C 72.869 11.918 72.948 12.121 72.948 12.364 L 72.948 15.92 C 72.948 16.489 73.074 16.912 73.326 17.187 C 73.578 17.462 73.956 17.6 74.46 17.6 C 74.973 17.6 75.356 17.462 75.608 17.187 C 75.86 16.912 75.986 16.489 75.986 15.92 L 75.986 12.364 C 75.986 12.121 76.065 11.918 76.224 11.755 C 76.383 11.592 76.583 11.51 76.826 11.51 Z M 83.364 11.37 C 84.008 11.37 84.591 11.536 85.114 11.867 C 85.637 12.198 86.05 12.658 86.353 13.246 C 86.656 13.834 86.808 14.501 86.808 15.248 C 86.808 15.995 86.659 16.664 86.36 17.257 C 86.061 17.85 85.653 18.312 85.135 18.643 C 84.617 18.974 84.045 19.14 83.42 19.14 C 82.972 19.14 82.55 19.049 82.153 18.867 C 81.756 18.685 81.427 18.463 81.166 18.202 L 81.166 20.946 C 81.166 21.189 81.087 21.392 80.928 21.555 C 80.769 21.718 80.569 21.8 80.326 21.8 C 80.083 21.8 79.883 21.721 79.724 21.562 C 79.565 21.403 79.486 21.198 79.486 20.946 L 79.486 12.364 C 79.486 12.121 79.565 11.918 79.724 11.755 C 79.883 11.592 80.083 11.51 80.326 11.51 C 80.569 11.51 80.769 11.592 80.928 11.755 C 81.087 11.918 81.166 12.121 81.166 12.364 L 81.166 12.42 C 81.39 12.14 81.703 11.895 82.104 11.685 C 82.505 11.475 82.925 11.37 83.364 11.37 Z M 83.154 17.6 C 83.751 17.6 84.241 17.376 84.624 16.928 C 85.007 16.48 85.198 15.92 85.198 15.248 C 85.198 14.576 85.009 14.018 84.631 13.575 C 84.253 13.132 83.761 12.91 83.154 12.91 C 82.547 12.91 82.053 13.132 81.67 13.575 C 81.287 14.018 81.096 14.576 81.096 15.248 C 81.096 15.92 81.287 16.48 81.67 16.928 C 82.053 17.376 82.547 17.6 83.154 17.6 Z M 92.086 11.37 C 92.73 11.37 93.313 11.536 93.836 11.867 C 94.359 12.198 94.772 12.658 95.075 13.246 C 95.378 13.834 95.53 14.501 95.53 15.248 C 95.53 15.995 95.381 16.664 95.082 17.257 C 94.783 17.85 94.375 18.312 93.857 18.643 C 93.339 18.974 92.767 19.14 92.142 19.14 C 91.694 19.14 91.272 19.049 90.875 18.867 C 90.478 18.685 90.149 18.463 89.888 18.202 L 89.888 20.946 C 89.888 21.189 89.809 21.392 89.65 21.555 C 89.491 21.718 89.291 21.8 89.048 21.8 C 88.805 21.8 88.605 21.721 88.446 21.562 C 88.287 21.403 88.208 21.198 88.208 20.946 L 88.208 12.364 C 88.208 12.121 88.287 11.918 88.446 11.755 C 88.605 11.592 88.805 11.51 89.048 11.51 C 89.291 11.51 89.491 11.592 89.65 11.755 C 89.809 11.918 89.888 12.121 89.888 12.364 L 89.888 12.42 C 90.112 12.14 90.425 11.895 90.826 11.685 C 91.227 11.475 91.647 11.37 92.086 11.37 Z M 91.876 17.6 C 92.473 17.6 92.963 17.376 93.346 16.928 C 93.729 16.48 93.92 15.92 93.92 15.248 C 93.92 14.576 93.731 14.018 93.353 13.575 C 92.975 13.132 92.483 12.91 91.876 12.91 C 91.269 12.91 90.775 13.132 90.392 13.575 C 90.009 14.018 89.818 14.576 89.818 15.248 C 89.818 15.92 90.009 16.48 90.392 16.928 C 90.775 17.376 91.269 17.6 91.876 17.6 Z M 104.126 15.262 C 104.126 16.009 103.958 16.678 103.622 17.271 C 103.286 17.864 102.826 18.323 102.243 18.65 C 101.66 18.977 101.018 19.14 100.318 19.14 C 99.609 19.14 98.965 18.977 98.386 18.65 C 97.807 18.323 97.35 17.864 97.014 17.271 C 96.678 16.678 96.51 16.009 96.51 15.262 C 96.51 14.515 96.678 13.846 97.014 13.253 C 97.35 12.66 97.807 12.198 98.386 11.867 C 98.965 11.536 99.609 11.37 100.318 11.37 C 101.018 11.37 101.66 11.536 102.243 11.867 C 102.826 12.198 103.286 12.66 103.622 13.253 C 103.958 13.846 104.126 14.515 104.126 15.262 Z M 102.446 15.262 C 102.446 14.805 102.35 14.396 102.159 14.037 C 101.968 13.678 101.711 13.4 101.389 13.204 C 101.067 13.008 100.71 12.91 100.318 12.91 C 99.926 12.91 99.569 13.008 99.247 13.204 C 98.925 13.4 98.668 13.678 98.477 14.037 C 98.286 14.396 98.19 14.805 98.19 15.262 C 98.19 15.719 98.286 16.125 98.477 16.48 C 98.668 16.835 98.925 17.11 99.247 17.306 C 99.569 17.502 99.926 17.6 100.318 17.6 C 100.71 17.6 101.067 17.502 101.389 17.306 C 101.711 17.11 101.968 16.835 102.159 16.48 C 102.35 16.125 102.446 15.719 102.446 15.262 Z M 109.418 11.37 C 109.698 11.37 109.934 11.449 110.125 11.608 C 110.316 11.767 110.412 11.953 110.412 12.168 C 110.412 12.457 110.337 12.674 110.188 12.819 C 110.039 12.964 109.861 13.036 109.656 13.036 C 109.516 13.036 109.357 13.003 109.18 12.938 C 109.152 12.929 109.089 12.91 108.991 12.882 C 108.893 12.854 108.788 12.84 108.676 12.84 C 108.433 12.84 108.2 12.915 107.976 13.064 C 107.752 13.213 107.568 13.44 107.423 13.743 C 107.278 14.046 107.206 14.408 107.206 14.828 L 107.206 18.146 C 107.206 18.389 107.127 18.592 106.968 18.755 C 106.809 18.918 106.609 19 106.366 19 C 106.123 19 105.923 18.918 105.764 18.755 C 105.605 18.592 105.526 18.389 105.526 18.146 L 105.526 12.364 C 105.526 12.121 105.605 11.918 105.764 11.755 C 105.923 11.592 106.123 11.51 106.366 11.51 C 106.609 11.51 106.809 11.592 106.968 11.755 C 107.127 11.918 107.206 12.121 107.206 12.364 L 107.206 12.546 C 107.421 12.163 107.729 11.872 108.13 11.671 C 108.531 11.47 108.961 11.37 109.418 11.37 Z M 115.214 17.418 C 115.345 17.418 115.464 17.481 115.571 17.607 C 115.678 17.733 115.732 17.899 115.732 18.104 C 115.732 18.356 115.594 18.568 115.319 18.741 C 115.044 18.914 114.733 19 114.388 19 C 113.809 19 113.322 18.876 112.925 18.629 C 112.528 18.382 112.33 17.857 112.33 17.054 L 112.33 13.19 L 111.686 13.19 C 111.462 13.19 111.275 13.115 111.126 12.966 C 110.977 12.817 110.902 12.63 110.902 12.406 C 110.902 12.191 110.977 12.012 111.126 11.867 C 111.275 11.722 111.462 11.65 111.686 11.65 L 112.33 11.65 L 112.33 10.754 C 112.33 10.511 112.412 10.308 112.575 10.145 C 112.738 9.982 112.941 9.9 113.184 9.9 C 113.417 9.9 113.613 9.982 113.772 10.145 C 113.931 10.308 114.01 10.511 114.01 10.754 L 114.01 11.65 L 115.004 11.65 C 115.228 11.65 115.415 11.725 115.564 11.874 C 115.713 12.023 115.788 12.21 115.788 12.434 C 115.788 12.649 115.713 12.828 115.564 12.973 C 115.415 13.118 115.228 13.19 115.004 13.19 L 114.01 13.19 L 114.01 16.984 C 114.01 17.18 114.061 17.322 114.164 17.411 C 114.267 17.5 114.407 17.544 114.584 17.544 C 114.659 17.544 114.761 17.525 114.892 17.488 C 115.004 17.441 115.111 17.418 115.214 17.418 Z M 183.392 15.262 C 183.392 16.009 183.224 16.678 182.888 17.271 C 182.552 17.864 182.092 18.323 181.509 18.65 C 180.926 18.977 180.284 19.14 179.584 19.14 C 178.875 19.14 178.231 18.977 177.652 18.65 C 177.073 18.323 176.616 17.864 176.28 17.271 C 175.944 16.678 175.776 16.009 175.776 15.262 C 175.776 14.515 175.944 13.846 176.28 13.253 C 176.616 12.66 177.073 12.198 177.652 11.867 C 178.231 11.536 178.875 11.37 179.584 11.37 C 180.284 11.37 180.926 11.536 181.509 11.867 C 182.092 12.198 182.552 12.66 182.888 13.253 C 183.224 13.846 183.392 14.515 183.392 15.262 Z M 181.712 15.262 C 181.712 14.805 181.616 14.396 181.425 14.037 C 181.234 13.678 180.977 13.4 180.655 13.204 C 180.333 13.008 179.976 12.91 179.584 12.91 C 179.192 12.91 178.835 13.008 178.513 13.204 C 178.191 13.4 177.934 13.678 177.743 14.037 C 177.552 14.396 177.456 14.805 177.456 15.262 C 177.456 15.719 177.552 16.125 177.743 16.48 C 177.934 16.835 178.191 17.11 178.513 17.306 C 178.835 17.502 179.192 17.6 179.584 17.6 C 179.976 17.6 180.333 17.502 180.655 17.306 C 180.977 17.11 181.234 16.835 181.425 16.48 C 181.616 16.125 181.712 15.719 181.712 15.262 Z M 188.796 11.37 C 189.748 11.37 190.406 11.652 190.77 12.217 C 191.134 12.782 191.316 13.563 191.316 14.562 L 191.316 18.146 C 191.316 18.389 191.237 18.592 191.078 18.755 C 190.919 18.918 190.719 19 190.476 19 C 190.233 19 190.033 18.918 189.874 18.755 C 189.715 18.592 189.636 18.389 189.636 18.146 L 189.636 14.562 C 189.636 14.049 189.529 13.645 189.314 13.351 C 189.099 13.057 188.731 12.91 188.208 12.91 C 187.667 12.91 187.242 13.066 186.934 13.379 C 186.626 13.692 186.472 14.086 186.472 14.562 L 186.472 18.146 C 186.472 18.389 186.393 18.592 186.234 18.755 C 186.075 18.918 185.875 19 185.632 19 C 185.389 19 185.189 18.918 185.03 18.755 C 184.871 18.592 184.792 18.389 184.792 18.146 L 184.792 12.364 C 184.792 12.121 184.871 11.918 185.03 11.755 C 185.189 11.592 185.389 11.51 185.632 11.51 C 185.875 11.51 186.075 11.592 186.234 11.755 C 186.393 11.918 186.472 12.121 186.472 12.364 L 186.472 12.602 C 186.724 12.266 187.053 11.977 187.459 11.734 C 187.865 11.491 188.311 11.37 188.796 11.37 Z M 204.7 17.544 C 204.756 17.619 204.803 17.71 204.84 17.817 C 204.877 17.924 204.896 18.025 204.896 18.118 C 204.896 18.37 204.8 18.58 204.609 18.748 C 204.418 18.916 204.196 19 203.944 19 C 203.823 19 203.706 18.972 203.594 18.916 C 203.482 18.86 203.389 18.781 203.314 18.678 L 200.276 14.674 L 198.946 15.948 L 198.946 18.146 C 198.946 18.398 198.864 18.603 198.701 18.762 C 198.538 18.921 198.325 19 198.064 19 C 197.812 19 197.604 18.918 197.441 18.755 C 197.278 18.592 197.196 18.389 197.196 18.146 L 197.196 10.054 C 197.196 9.811 197.28 9.608 197.448 9.445 C 197.616 9.282 197.831 9.2 198.092 9.2 C 198.344 9.2 198.549 9.279 198.708 9.438 C 198.867 9.597 198.946 9.802 198.946 10.054 L 198.946 13.862 L 203.426 9.452 C 203.641 9.237 203.869 9.13 204.112 9.13 C 204.327 9.13 204.509 9.219 204.658 9.396 C 204.807 9.573 204.882 9.76 204.882 9.956 C 204.882 10.152 204.798 10.334 204.63 10.502 L 201.578 13.414 L 204.7 17.544 Z M 213.422 15.262 C 213.422 16.009 213.254 16.678 212.918 17.271 C 212.582 17.864 212.122 18.323 211.539 18.65 C 210.956 18.977 210.314 19.14 209.614 19.14 C 208.905 19.14 208.261 18.977 207.682 18.65 C 207.103 18.323 206.646 17.864 206.31 17.271 C 205.974 16.678 205.806 16.009 205.806 15.262 C 205.806 14.515 205.974 13.846 206.31 13.253 C 206.646 12.66 207.103 12.198 207.682 11.867 C 208.261 11.536 208.905 11.37 209.614 11.37 C 210.314 11.37 210.956 11.536 211.539 11.867 C 212.122 12.198 212.582 12.66 212.918 13.253 C 213.254 13.846 213.422 14.515 213.422 15.262 Z M 211.742 15.262 C 211.742 14.805 211.646 14.396 211.455 14.037 C 211.264 13.678 211.007 13.4 210.685 13.204 C 210.363 13.008 210.006 12.91 209.614 12.91 C 209.222 12.91 208.865 13.008 208.543 13.204 C 208.221 13.4 207.964 13.678 207.773 14.037 C 207.582 14.396 207.486 14.805 207.486 15.262 C 207.486 15.719 207.582 16.125 207.773 16.48 C 207.964 16.835 208.221 17.11 208.543 17.306 C 208.865 17.502 209.222 17.6 209.614 17.6 C 210.006 17.6 210.363 17.502 210.685 17.306 C 211.007 17.11 211.264 16.835 211.455 16.48 C 211.646 16.125 211.742 15.719 211.742 15.262 Z M 215.466 15.542 C 215.223 15.542 215.02 15.463 214.857 15.304 C 214.694 15.145 214.612 14.945 214.612 14.702 C 214.612 14.469 214.694 14.273 214.857 14.114 C 215.02 13.955 215.223 13.876 215.466 13.876 L 217.902 13.876 C 218.145 13.876 218.348 13.958 218.511 14.121 C 218.674 14.284 218.756 14.487 218.756 14.73 C 218.756 14.963 218.674 15.157 218.511 15.311 C 218.348 15.465 218.145 15.542 217.902 15.542 L 215.466 15.542 Z M 223.964 10.124 C 223.647 10.124 223.423 10.215 223.292 10.397 C 223.161 10.579 223.096 10.777 223.096 10.992 L 223.096 11.65 L 224.37 11.65 C 224.594 11.65 224.781 11.722 224.93 11.867 C 225.079 12.012 225.154 12.196 225.154 12.42 C 225.154 12.644 225.079 12.828 224.93 12.973 C 224.781 13.118 224.594 13.19 224.37 13.19 L 223.096 13.19 L 223.096 18.146 C 223.096 18.389 223.017 18.592 222.858 18.755 C 222.699 18.918 222.499 19 222.256 19 C 222.013 19 221.813 18.918 221.654 18.755 C 221.495 18.592 221.416 18.389 221.416 18.146 L 221.416 13.19 L 220.66 13.19 C 220.436 13.19 220.249 13.118 220.1 12.973 C 219.951 12.828 219.876 12.644 219.876 12.42 C 219.876 12.196 219.951 12.012 220.1 11.867 C 220.249 11.722 220.436 11.65 220.66 11.65 L 221.416 11.65 L 221.416 11.006 C 221.416 10.306 221.656 9.737 222.137 9.298 C 222.618 8.859 223.311 8.64 224.216 8.64 C 224.561 8.64 224.862 8.71 225.119 8.85 C 225.376 8.99 225.504 9.205 225.504 9.494 C 225.504 9.718 225.439 9.9 225.308 10.04 C 225.177 10.18 225.019 10.25 224.832 10.25 C 224.785 10.25 224.736 10.245 224.685 10.236 C 224.634 10.227 224.58 10.217 224.524 10.208 C 224.3 10.152 224.113 10.124 223.964 10.124 Z M 227.786 18.146 C 227.786 18.389 227.707 18.592 227.548 18.755 C 227.389 18.918 227.189 19 226.946 19 C 226.703 19 226.503 18.918 226.344 18.755 C 226.185 18.592 226.106 18.389 226.106 18.146 L 226.106 12.364 C 226.106 12.121 226.185 11.918 226.344 11.755 C 226.503 11.592 226.703 11.51 226.946 11.51 C 227.189 11.51 227.389 11.592 227.548 11.755 C 227.707 11.918 227.786 12.121 227.786 12.364 L 227.786 18.146 Z M 226.932 10.6 C 226.615 10.6 226.391 10.549 226.26 10.446 C 226.129 10.343 226.064 10.161 226.064 9.9 L 226.064 9.634 C 226.064 9.373 226.134 9.191 226.274 9.088 C 226.414 8.985 226.638 8.934 226.946 8.934 C 227.273 8.934 227.501 8.985 227.632 9.088 C 227.763 9.191 227.828 9.373 227.828 9.634 L 227.828 9.9 C 227.828 10.171 227.76 10.355 227.625 10.453 C 227.49 10.551 227.259 10.6 226.932 10.6 Z"/>
  </g>
  <path d="M 121.185 18.311 C 121.185 18.787 121.549 19.151 122.025 19.151 C 122.501 19.151 122.879 18.787 122.879 18.311 L 122.879 12.445 L 125.259 16.015 C 125.441 16.295 125.665 16.463 125.973 16.463 C 126.295 16.463 126.519 16.295 126.701 16.015 L 129.095 12.417 L 129.095 18.297 C 129.095 18.759 129.487 19.151 129.949 19.151 C 130.439 19.151 130.817 18.773 130.817 18.297 L 130.817 10.093 C 130.817 9.617 130.439 9.225 129.949 9.225 L 129.767 9.225 C 129.417 9.225 129.165 9.379 128.983 9.673 L 126.001 14.335 L 123.033 9.687 C 122.865 9.421 122.613 9.225 122.235 9.225 L 122.053 9.225 C 121.563 9.225 121.185 9.617 121.185 10.093 Z M 132.712 9.785 C 132.712 10.289 133.132 10.625 133.678 10.625 C 134.224 10.625 134.644 10.289 134.644 9.785 L 134.644 9.701 C 134.644 9.197 134.224 8.875 133.678 8.875 C 133.132 8.875 132.712 9.197 132.712 9.701 Z M 132.838 18.311 C 132.838 18.787 133.216 19.151 133.678 19.151 C 134.154 19.151 134.532 18.787 134.532 18.311 L 134.532 12.459 C 134.532 11.983 134.154 11.605 133.678 11.605 C 133.202 11.605 132.838 11.983 132.838 12.459 Z M 139.76 19.249 C 140.992 19.249 141.79 18.829 142.448 18.199 C 142.602 18.073 142.686 17.891 142.686 17.667 C 142.686 17.261 142.364 16.925 141.958 16.925 C 141.762 16.925 141.594 17.023 141.496 17.107 C 141.034 17.499 140.516 17.765 139.844 17.765 C 138.542 17.765 137.632 16.715 137.632 15.399 L 137.632 15.371 C 137.632 14.083 138.542 13.019 139.774 13.019 C 140.446 13.019 140.922 13.285 141.356 13.649 C 141.468 13.733 141.65 13.817 141.86 13.817 C 142.294 13.817 142.644 13.481 142.644 13.047 C 142.644 12.767 142.49 12.557 142.378 12.459 C 141.748 11.913 140.95 11.535 139.788 11.535 C 137.562 11.535 135.938 13.299 135.938 15.399 L 135.938 15.427 C 135.938 17.527 137.562 19.249 139.76 19.249 Z M 143.938 18.311 C 143.938 18.787 144.316 19.151 144.778 19.151 C 145.254 19.151 145.632 18.787 145.632 18.311 L 145.632 14.909 C 145.632 13.761 146.318 13.075 147.298 13.075 C 148.306 13.075 148.88 13.733 148.88 14.881 L 148.88 18.311 C 148.88 18.787 149.258 19.151 149.734 19.151 C 150.21 19.151 150.574 18.787 150.574 18.311 L 150.574 14.363 C 150.574 12.655 149.608 11.535 147.942 11.535 C 146.794 11.535 146.108 12.137 145.632 12.823 L 145.632 9.631 C 145.632 9.169 145.254 8.791 144.778 8.791 C 144.302 8.791 143.938 9.169 143.938 9.631 Z M 154.346 19.235 C 155.48 19.235 156.25 18.759 156.754 18.157 L 156.754 18.437 C 156.754 18.815 157.09 19.151 157.58 19.151 C 158.042 19.151 158.406 18.801 158.406 18.339 L 158.406 14.699 C 158.406 13.733 158.154 12.949 157.608 12.417 C 157.09 11.885 156.264 11.591 155.158 11.591 C 154.192 11.591 153.478 11.759 152.778 12.025 C 152.526 12.123 152.316 12.389 152.316 12.697 C 152.316 13.089 152.638 13.397 153.03 13.397 C 153.114 13.397 153.198 13.383 153.296 13.355 C 153.758 13.173 154.29 13.061 154.934 13.061 C 156.124 13.061 156.768 13.621 156.768 14.671 L 156.768 14.853 C 156.194 14.671 155.606 14.545 154.78 14.545 C 152.974 14.545 151.728 15.329 151.728 16.925 L 151.728 16.953 C 151.728 18.437 152.96 19.235 154.346 19.235 Z M 154.822 18.003 C 154.01 18.003 153.38 17.597 153.38 16.883 L 153.38 16.855 C 153.38 16.085 154.024 15.623 155.116 15.623 C 155.788 15.623 156.362 15.749 156.796 15.917 L 156.796 16.421 C 156.796 17.359 155.942 18.003 154.822 18.003 Z M 161.311 14.867 C 161.465 13.719 162.193 12.921 163.229 12.921 C 164.349 12.921 164.993 13.775 165.105 14.867 Z M 166.085 18.269 C 166.211 18.143 166.309 17.961 166.309 17.751 C 166.309 17.359 166.015 17.065 165.637 17.065 C 165.441 17.065 165.329 17.121 165.203 17.219 C 164.727 17.611 164.167 17.863 163.453 17.863 C 162.361 17.863 161.507 17.191 161.325 15.987 L 165.959 15.987 C 166.393 15.987 166.757 15.651 166.757 15.175 C 166.757 13.467 165.595 11.535 163.243 11.535 C 161.129 11.535 159.631 13.271 159.631 15.385 L 159.631 15.413 C 159.631 17.695 161.283 19.249 163.425 19.249 C 164.573 19.249 165.413 18.871 166.085 18.269 Z M 168.19 18.311 C 168.19 18.787 168.568 19.151 169.03 19.151 C 169.506 19.151 169.884 18.787 169.884 18.311 L 169.884 9.631 C 169.884 9.169 169.506 8.791 169.03 8.791 C 168.554 8.791 168.19 9.169 168.19 9.631 Z" style="fill: rgb(255, 255, 255);"/>
</svg>